<svg xmlns="http://www.w3.org/2000/svg" width="125" height="32" viewBox="0 0 125 32">
    <g fill="none" fill-rule="evenodd">
        <g fill="#FFF">
            <g>
                <g>
                    <g>
                        <path d="M62.748 11.607c2.08 0 3.834.702 5.266 2.08 1.43 1.376 2.16 3.104 2.16 5.13 0 2.025-.73 3.752-2.16 5.13-1.432 1.377-3.187 2.078-5.266 2.078s-3.834-.7-5.265-2.079c-1.43-1.377-2.16-3.104-2.16-5.13 0-2.025.73-3.753 2.16-5.13 1.431-1.377 3.186-2.079 5.265-2.079zm40.609 0c2.079 0 3.834.702 5.265 2.08 1.43 1.376 2.16 3.104 2.16 5.13 0 2.025-.73 3.752-2.16 5.13-1.431 1.377-3.186 2.078-5.265 2.078-2.08 0-3.834-.7-5.266-2.079-1.43-1.377-2.16-3.104-2.16-5.13 0-2.025.73-3.753 2.16-5.13 1.432-1.377 3.187-2.079 5.266-2.079zM43.065 6.801v7.182c.46-1.323 2.106-2.268 4.347-2.268 1.917 0 3.537.675 4.833 2.052 1.323 1.35 1.971 3.024 1.971 5.05 0 2.025-.648 3.7-1.97 5.075-1.297 1.351-2.917 2.026-4.834 2.026-2.24 0-3.888-.945-4.347-2.269v1.972h-3.24V6.801h3.24zm40.608 0v7.182c.46-1.323 2.106-2.268 4.347-2.268 1.917 0 3.537.675 4.833 2.052 1.324 1.35 1.971 3.024 1.971 5.05 0 2.025-.647 3.7-1.97 5.075-1.297 1.351-2.917 2.026-4.834 2.026-2.24 0-3.888-.945-4.347-2.269v1.972h-3.24V6.801h3.24zm-7.614 0v5.211h2.944v2.943h-2.944v10.666h-3.24V14.955h-1.755v-2.943h1.756v-5.21h3.24zm38.691 5.211l2.97 4.077 2.944-4.077h3.537l-4.698 6.4 5.157 7.21h-3.483l-3.457-4.808-3.456 4.807h-3.483l5.157-7.183-4.698-6.426h3.51zM62.748 14.55c-1.215 0-2.214.405-3.024 1.242-.783.81-1.188 1.81-1.188 3.024 0 1.215.405 2.214 1.188 3.051.81.811 1.81 1.216 3.024 1.216 1.188 0 2.187-.405 2.997-1.216.811-.837 1.215-1.836 1.215-3.05 0-1.216-.404-2.215-1.215-3.025-.81-.837-1.809-1.242-2.997-1.242zm40.609 0c-1.215 0-2.214.405-3.024 1.242-.784.81-1.188 1.81-1.188 3.024 0 1.215.404 2.214 1.188 3.051.81.811 1.809 1.216 3.024 1.216 1.188 0 2.186-.405 2.997-1.216.81-.837 1.215-1.836 1.215-3.05 0-1.216-.405-2.215-1.215-3.025-.811-.837-1.81-1.242-2.997-1.242zm-56.377.108c-1.16 0-2.16.405-2.97 1.19-.783.782-1.188 1.781-1.188 2.968 0 1.19.405 2.188 1.188 2.971.81.782 1.81 1.187 2.97 1.187 1.161 0 2.106-.405 2.862-1.187.783-.783 1.161-1.782 1.161-2.97 0-1.188-.378-2.187-1.16-2.97-.757-.784-1.702-1.189-2.863-1.189zm40.608 0c-1.16 0-2.16.405-2.97 1.19-.783.782-1.189 1.781-1.189 2.968 0 1.19.406 2.188 1.19 2.971.81.782 1.81 1.187 2.97 1.187 1.16 0 2.105-.405 2.861-1.187.783-.783 1.161-1.782 1.161-2.97 0-1.188-.378-2.187-1.16-2.97-.757-.784-1.702-1.189-2.863-1.189zM22.154 0C27.592 0 32 4.408 32 9.846V32H9.846C4.408 32 0 27.592 0 22.154V9.846C0 4.408 4.408 0 9.846 0zm0 3.692H9.846c-3.393 0-6.153 2.761-6.153 6.154v12.308c0 3.393 2.76 6.154 6.153 6.154h18.462V9.846c0-3.393-2.76-6.154-6.154-6.154zM9.469 13.367c1.452 0 2.633 1.182 2.633 2.633 0 1.45-1.181 2.633-2.633 2.633S6.836 17.45 6.836 16s1.18-2.633 2.633-2.633zm6.531 0c1.452 0 2.633 1.182 2.633 2.633 0 1.45-1.18 2.633-2.633 2.633-1.452 0-2.633-1.182-2.633-2.633s1.181-2.633 2.633-2.633zm6.531 0c1.452 0 2.633 1.182 2.633 2.633 0 1.45-1.18 2.633-2.633 2.633-1.452 0-2.633-1.182-2.633-2.633s1.181-2.633 2.633-2.633z" transform="translate(-24 -28) translate(24 28)"/>
                    </g>
                </g>
            </g>
        </g>
    </g>
</svg>
