<svg xmlns="http://www.w3.org/2000/svg" width="20" height="20" viewBox="0 0 20 20">
    <g fill="none" fill-rule="evenodd">
        <g fill="#1E2F42">
            <g>
                <g>
                    <path d="M12.5 3.32c-.938.026-1.719.352-2.344.977-.625.625-.937 1.413-.937 2.363s.312 1.738.937 2.363 1.406.938 2.344.938 1.719-.313 2.344-.938c.625-.625.937-1.412.937-2.363 0-.95-.312-1.738-.937-2.363s-1.406-.95-2.344-.977zm0 1.602c.495 0 .905.17 1.23.508.326.338.489.755.489 1.25 0 .494-.163.905-.489 1.23-.325.326-.735.488-1.23.488s-.905-.162-1.23-.488c-.326-.325-.489-.736-.489-1.23 0-.495.163-.912.489-1.25.325-.339.735-.508 1.23-.508zm-9.18.898v2.5H.82V10h2.5v2.5H5V10h2.5V8.32H5v-2.5H3.32zm9.18 5c-1.25 0-2.637.28-4.16.84-1.524.56-2.363 1.4-2.52 2.52v2.5h13.36v-2.5c-.157-1.12-.996-1.96-2.52-2.52-1.523-.56-2.91-.84-4.16-.84zm0 1.602c1.302.026 2.46.247 3.477.664 1.015.417 1.549.781 1.601 1.094v.898H7.422v-.898c.052-.313.586-.677 1.601-1.094 1.016-.417 2.175-.638 3.477-.664z" transform="translate(-1056 -350) translate(968 336) translate(88 14)"/>
                </g>
            </g>
        </g>
    </g>
</svg>
