<svg xmlns="http://www.w3.org/2000/svg" width="24" height="24" viewBox="0 0 24 24">
    <g fill="none" fill-rule="evenodd">
        <g fill="#0076E8">
            <g>
                <g>
                    <path d="M18.984 18.984H5.016V8.016h13.968v10.968zm-3-18H18V3h.984c.563 0 1.04.187 1.43.563.39.375.586.859.586 1.453v13.968c0 .563-.195 1.04-.586 1.43-.39.39-.867.586-1.43.586H5.016c-.563 0-1.04-.195-1.43-.586-.39-.39-.586-.867-.586-1.43V5.016c0-.594.187-1.078.563-1.454C3.938 3.188 4.421 3 5.016 3H6V.984h2.016V3h7.968V.984z" transform="translate(-1110 -368) translate(798 352) translate(312 16)"/>
                </g>
            </g>
        </g>
    </g>
</svg>
