<svg xmlns="http://www.w3.org/2000/svg" width="24" height="24" viewBox="0 0 24 24">
    <path fill="#0076E8" fill-rule="evenodd" d="M5.016 11.016l1.5-4.5h10.968l1.5 4.5H5.016zm12.468 4.968c-.406 0-.75-.14-1.03-.421-.282-.282-.423-.633-.423-1.055 0-.422.14-.774.422-1.055.281-.281.633-.422 1.055-.422.422 0 .773.14 1.055.422.28.281.421.633.421 1.055 0 .422-.14.773-.422 1.055-.28.28-.64.421-1.078.421zm-10.968 0c-.438 0-.797-.14-1.079-.421-.28-.282-.421-.633-.421-1.055 0-.422.14-.774.421-1.055.282-.281.633-.422 1.055-.422.422 0 .774.14 1.055.422.281.281.422.633.422 1.055 0 .422-.14.773-.422 1.055-.281.28-.625.421-1.031.421zM18.937 6L21 12v8.016c0 .28-.094.515-.281.703-.188.187-.422.281-.703.281h-1.032c-.28 0-.515-.094-.703-.281-.187-.188-.281-.422-.281-.703v-1.032H6v1.032c0 .28-.094.515-.281.703-.188.187-.422.281-.703.281H3.984c-.28 0-.515-.094-.703-.281-.187-.188-.281-.422-.281-.703V12l2.063-6c.125-.281.312-.516.562-.703.25-.188.547-.281.89-.281h10.97c.343 0 .64.093.89.28.25.188.437.423.563.704z"/>
</svg>
