<svg xmlns="http://www.w3.org/2000/svg" width="20" height="20" viewBox="0 0 20 20">
    <g fill="none" fill-rule="evenodd">
        <g fill="#1E2F42">
            <g>
                <g>
                    <path d="M16.68 10c-.052 1.901-.703 3.477-1.953 4.727-1.25 1.25-2.826 1.9-4.727 1.953-1.901-.052-3.477-.703-4.727-1.953-1.25-1.25-1.9-2.826-1.953-4.727.052-1.901.703-3.477 1.953-4.727C6.523 4.023 8.1 3.373 10 3.32c.625 0 1.237.091 1.836.274l1.289-1.328C12.161 1.875 11.12 1.68 10 1.68c-2.37.052-4.336.86-5.898 2.422C2.539 5.664 1.732 7.63 1.68 10c.052 2.37.86 4.336 2.422 5.898C5.664 17.461 7.63 18.268 10 18.32c2.37-.052 4.336-.86 5.898-2.422 1.563-1.562 2.37-3.528 2.422-5.898h-1.64zM6.602 8.398l2.578 2.579 7.148-7.149L17.5 5l-8.32 8.32-3.75-3.75 1.172-1.172z" transform="translate(-1212 -350) translate(1108 336) translate(104 14)"/>
                </g>
            </g>
        </g>
    </g>
</svg>
