<svg xmlns="http://www.w3.org/2000/svg" width="24" height="24" viewBox="0 0 24 24">
    <g fill="none" fill-rule="evenodd">
        <g fill="#1089FF">
            <g>
                <path d="M18.154 2c1.337 0 1.822.14 2.311.4.49.262.873.646 1.134 1.135.262.489.401.974.401 2.31v12.31c0 1.336-.14 1.821-.4 2.31-.262.49-.646.873-1.135 1.134-.489.262-.974.401-2.31.401H5.844c-1.336 0-1.821-.14-2.31-.4-.49-.262-.873-.646-1.134-1.135-.262-.489-.401-.974-.401-2.31V5.844c0-1.336.14-1.821.4-2.31.262-.49.646-.873 1.135-1.134.489-.262.974-.401 2.31-.401h12.31zM16 11H8c-.552 0-1 .448-1 1s.448 1 1 1h8c.552 0 1-.448 1-1s-.448-1-1-1z" transform="translate(-432 -348) translate(432 348)"/>
            </g>
        </g>
    </g>
</svg>
