<svg xmlns="http://www.w3.org/2000/svg" width="24" height="24" viewBox="0 0 24 24">
    <path fill="#1E2F42" fill-rule="evenodd" d="M11.016 9h1.968V6.984h-1.968V9zM12 20.016c-2.25-.063-4.133-.852-5.648-2.368C4.836 16.133 4.047 14.25 3.984 12c.063-2.25.852-4.133 2.368-5.648C7.867 4.836 9.75 4.047 12 3.984c2.25.063 4.133.852 5.648 2.368C19.164 7.867 19.953 9.75 20.016 12c-.063 2.25-.852 4.133-2.368 5.648-1.515 1.516-3.398 2.305-5.648 2.368zm0-18c-2.844.062-5.203 1.03-7.078 2.906C3.047 6.797 2.078 9.156 2.016 12c.062 2.844 1.03 5.203 2.906 7.078 1.875 1.875 4.234 2.844 7.078 2.906 2.844-.062 5.203-1.03 7.078-2.906 1.875-1.875 2.844-4.234 2.906-7.078-.062-2.844-1.03-5.203-2.906-7.078C17.203 3.047 14.844 2.078 12 2.016zm-.984 15v-6h1.968v6h-1.968z"/>
</svg>
