<svg xmlns="http://www.w3.org/2000/svg" width="24" height="24" viewBox="0 0 24 24">
    <g fill="none" fill-rule="evenodd">
        <g fill="#355374">
            <g>
                <g>
                    <g>
                        <g>
                            <path d="M10.594 13.406c.187.219.281.461.281.727 0 .265-.102.5-.305.703-.203.203-.437.305-.703.305-.227 0-.426-.08-.597-.241l-.082-.088c-1-1-1.5-2.171-1.5-3.515 0-1.344.5-2.516 1.5-3.516l3.515-3.562c1.031-.969 2.211-1.453 3.54-1.453 1.327 0 2.507.484 3.538 1.453.969 1.031 1.453 2.21 1.453 3.539 0 1.328-.484 2.508-1.453 3.539l-1.5 1.5c.032-.844-.093-1.656-.375-2.438l.469-.468c.594-.625.89-1.336.89-2.133 0-.797-.304-1.5-.913-2.11-.61-.609-1.313-.914-2.11-.914-.797 0-1.508.297-2.133.891l-3.515 3.563c-.594.593-.89 1.289-.89 2.085 0 .797.296 1.508.89 2.133zm2.812-4.219c.219-.218.461-.328.727-.328.227 0 .426.08.597.241l.082.088c1 1 1.5 2.171 1.5 3.515 0 1.344-.5 2.516-1.5 3.516l-3.515 3.562c-1.031.969-2.211 1.453-3.54 1.453-1.327 0-2.507-.484-3.538-1.453-.969-1.031-1.453-2.21-1.453-3.539 0-1.328.484-2.508 1.453-3.539l1.5-1.5c-.032.844.093 1.656.375 2.438l-.469.468c-.594.625-.89 1.336-.89 2.133 0 .797.304 1.5.913 2.11.61.609 1.313.914 2.11.914.797 0 1.508-.297 2.133-.891l3.515-3.563c.594-.593.89-1.289.89-2.085 0-.797-.296-1.508-.89-2.133-.187-.219-.281-.461-.281-.727 0-.265.094-.492.281-.68z" transform="translate(-1232 -484) translate(1040) translate(30 204) translate(16 280) translate(146)"/>
                        </g>
                    </g>
                </g>
            </g>
        </g>
    </g>
</svg>
