<svg xmlns="http://www.w3.org/2000/svg" width="24" height="24" viewBox="0 0 24 24">
    <g fill="none" fill-rule="evenodd">
        <g fill="#355374">
            <g>
                <g>
                    <g>
                        <g>
                            <path d="M6.984 5.016H21v1.968H6.984V5.016zm0 7.968v-1.968H21v1.968H6.984zm-3-8.484c.438 0 .797.14 1.079.422.28.281.421.64.421 1.078 0 .438-.14.797-.421 1.078-.282.281-.633.422-1.055.422-.422 0-.774-.14-1.055-.422-.281-.281-.422-.64-.422-1.078 0-.438.14-.797.422-1.078.281-.281.625-.422 1.031-.422zm0 6c.438 0 .797.14 1.079.422.28.281.421.64.421 1.078 0 .438-.14.797-.421 1.078-.282.281-.633.422-1.055.422-.422 0-.774-.14-1.055-.422-.281-.281-.422-.64-.422-1.078 0-.438.14-.797.422-1.078.281-.281.625-.422 1.031-.422zm3 8.484v-1.968H21v1.968H6.984zm-3-2.484c.438 0 .797.14 1.079.422.28.281.421.64.421 1.078 0 .438-.14.797-.421 1.078-.282.281-.633.422-1.055.422-.422 0-.774-.14-1.055-.422-.281-.281-.422-.64-.422-1.078 0-.438.14-.797.422-1.078.281-.281.625-.422 1.031-.422z" transform="translate(-1127 -484) translate(1040) translate(30 204) translate(16 280) translate(41)"/>
                        </g>
                    </g>
                </g>
            </g>
        </g>
    </g>
</svg>
