<svg xmlns="http://www.w3.org/2000/svg" width="24" height="24" viewBox="0 0 24 24">
    <path fill="#C9CED6" fill-rule="evenodd" d="M21 18.984v1.032H3v-1.032l2.016-1.968v-6c0-1.594.453-2.993 1.359-4.196.906-1.203 2.11-2.039 3.61-2.508v-.328c.03-.562.234-1.03.609-1.406.375-.375.843-.562 1.406-.562s1.031.187 1.406.562c.375.375.578.844.61 1.406v.329c1.5.468 2.703 1.304 3.609 2.507.906 1.203 1.36 2.602 1.36 4.196v6L21 18.984zM14.016 21c-.032.563-.235 1.031-.61 1.406s-.843.563-1.406.563-1.031-.188-1.406-.563c-.375-.375-.578-.843-.61-1.406h4.032z"/>
</svg>
