<svg xmlns="http://www.w3.org/2000/svg" width="16" height="16" viewBox="0 0 16 16">
    <path fill="#A7AEBB" fill-rule="evenodd" d="M4.406 7.188c.5.958 1.12 1.807 1.86 2.546.74.74 1.588 1.36 2.546 1.86l1.47-1.469c.208-.188.437-.24.687-.156.75.25 1.541.375 2.375.375.187 0 .343.062.469.187.125.125.187.281.187.469v2.344c0 .187-.062.343-.188.469-.125.125-.28.187-.468.187-3.209-.083-5.88-1.193-8.016-3.328C3.193 8.536 2.083 5.865 2 2.656c0-.187.062-.343.188-.469.125-.125.28-.187.468-.187H5c.188 0 .344.062.469.188.125.125.187.28.187.468 0 .834.125 1.625.375 2.375.084.25.032.48-.156.688L4.406 7.187z"/>
</svg>
