<svg xmlns="http://www.w3.org/2000/svg" width="24" height="24" viewBox="0 0 24 24">
    <g fill="none" fill-rule="evenodd">
        <g fill="#B0B7C3">
            <g>
                <g>
                    <g>
                        <path d="M11 16c2.761 0 5-2.239 5-5s-2.239-5-5-5-5 2.239-5 5 2.239 5 5 5zm0-12c3.866 0 7 3.134 7 7 0 1.572-.518 3.024-1.394 4.192l3.101 3.1c.39.391.39 1.025 0 1.415-.39.39-1.024.39-1.414 0l-3.1-3.1C14.022 17.481 12.572 18 11 18c-3.866 0-7-3.134-7-7s3.134-7 7-7z" transform="translate(-1082 -140) translate(1040) translate(42 140)"/>
                    </g>
                </g>
            </g>
        </g>
    </g>
</svg>
