<svg xmlns="http://www.w3.org/2000/svg" width="24" height="24" viewBox="0 0 24 24">
    <g fill="none" fill-rule="evenodd">
        <g fill="#C9CED6">
            <g>
                <g>
                    <g>
                        <g>
                            <path d="M14.016 2.016c.25 0 .406.14.468.421l.375 2.626c.625.25 1.188.578 1.688.984l2.484-.984c.282-.094.485-.032.61.187l2.015 3.469c.125.25.094.468-.093.656l-2.11 1.64.047.985-.047.984 2.11 1.641c.187.188.218.406.093.656l-2.015 3.469c-.125.219-.328.281-.61.188l-2.484-.985c-.5.406-1.063.734-1.688.985l-.375 2.625c-.062.28-.218.421-.468.421H9.984c-.25 0-.406-.14-.468-.422l-.375-2.625c-.625-.25-1.188-.578-1.688-.984l-2.484.985c-.282.093-.485.03-.61-.188l-2.015-3.469c-.125-.25-.094-.468.094-.656l2.109-1.64L4.5 12l.047-.984-2.11-1.641c-.187-.188-.218-.406-.093-.656L4.359 5.25c.125-.219.328-.281.61-.188l2.484.985c.5-.406 1.063-.734 1.688-.984l.375-2.625c.062-.282.218-.422.468-.422h4.032zM12.75 3.984h-1.5l-.422 2.625c-1.156.282-2.125.844-2.906 1.688l-2.484-.938-.75 1.313 2.062 1.687c-.156.532-.234 1.078-.234 1.641 0 .594.078 1.14.234 1.64l-2.063 1.735.75 1.266 2.532-.938c.75.844 1.687 1.406 2.812 1.688l.469 2.625h1.5l.422-2.625c1.156-.282 2.11-.828 2.86-1.641l2.53.938.75-1.313-2.062-1.688c.156-.53.234-1.085.234-1.664 0-.578-.078-1.132-.234-1.664l2.063-1.687-.75-1.313-2.485.938c-.781-.844-1.75-1.406-2.906-1.688l-.422-2.625zm-.75 4.5c1 .032 1.828.375 2.484 1.032.657.656.985 1.484.985 2.484s-.328 1.828-.985 2.484c-.656.657-1.484.985-2.484.985s-1.828-.328-2.484-.985C8.859 13.828 8.53 13 8.53 12s.328-1.828.985-2.484c.656-.657 1.484-1 2.484-1.032zm0 2.016c-.438 0-.797.14-1.078.422-.281.281-.422.64-.422 1.078 0 .438.14.797.422 1.078.281.281.64.422 1.078.422.438 0 .797-.14 1.078-.422.281-.281.422-.64.422-1.078 0-.438-.14-.797-.422-1.078-.281-.281-.64-.422-1.078-.422z" transform="translate(-1472 -32) translate(1472 32)"/>
                        </g>
                    </g>
                </g>
            </g>
        </g>
    </g>
</svg>
