<svg xmlns="http://www.w3.org/2000/svg" width="24" height="24" viewBox="0 0 24 24">
    <g fill="none" fill-rule="evenodd">
        <g fill="#355374">
            <g>
                <g>
                    <g>
                        <g>
                            <path d="M20.016 12c-.063-2.281-.844-4.172-2.344-5.672S14.282 4.047 12 3.984c-2.281.063-4.172.844-5.672 2.344S4.047 9.718 3.984 12c.063 2.281.844 4.172 2.344 5.672s3.39 2.281 5.672 2.344c2.281-.063 4.172-.844 5.672-2.344s2.281-3.39 2.344-5.672zm1.968 0c-.062 2.844-1.03 5.203-2.906 7.078-1.875 1.875-4.234 2.844-7.078 2.906-2.844-.062-5.203-1.03-7.078-2.906C3.047 17.203 2.078 14.844 2.016 12c.062-2.844 1.03-5.203 2.906-7.078C6.797 3.047 9.156 2.078 12 2.016c2.844.062 5.203 1.03 7.078 2.906 1.875 1.875 2.844 4.234 2.906 7.078zm-12-2.484c0 .406-.14.75-.421 1.03-.282.282-.633.423-1.055.423-.422 0-.774-.14-1.055-.422-.281-.281-.422-.633-.422-1.055 0-.422.14-.773.422-1.055.281-.28.633-.421 1.055-.421.422 0 .773.14 1.055.421.28.282.421.641.421 1.079zm7.032 0c-.032.406-.188.75-.47 1.03-.28.282-.632.423-1.054.423-.422 0-.773-.14-1.055-.422-.28-.281-.421-.633-.421-1.055 0-.422.14-.773.421-1.055.282-.28.633-.421 1.055-.421.422 0 .774.14 1.055.421.281.282.437.641.469 1.079zM12 17.25c-.875-.031-1.68-.21-2.414-.54-.734-.327-1.32-.757-1.758-1.288l1.406-1.406c.22.343.578.632 1.079.867.5.234 1.062.351 1.687.351s1.187-.117 1.688-.351c.5-.235.859-.524 1.078-.867l1.406 1.406c-.438.531-1.024.96-1.758 1.289-.734.328-1.539.508-2.414.539z" transform="translate(-1337 -484) translate(1040) translate(30 204) translate(16 280) translate(251)"/>
                        </g>
                    </g>
                </g>
            </g>
        </g>
    </g>
</svg>
