<svg xmlns="http://www.w3.org/2000/svg" xmlns:xlink="http://www.w3.org/1999/xlink" width="40" height="24" viewBox="0 0 40 24">
    <defs>
        <filter id="l11bnen77a" width="431.2%" height="431.2%" x="-165.6%" y="-128.1%" filterUnits="objectBoundingBox">
            <feMorphology in="SourceAlpha" radius=".5" result="shadowSpreadOuter1"/>
            <feOffset dy="6" in="shadowSpreadOuter1" result="shadowOffsetOuter1"/>
            <feGaussianBlur in="shadowOffsetOuter1" result="shadowBlurOuter1" stdDeviation="8"/>
            <feColorMatrix in="shadowBlurOuter1" result="shadowMatrixOuter1" values="0 0 0 0 0.0392156863 0 0 0 0 0.0862745098 0 0 0 0 0.274509804 0 0 0 0.1 0"/>
            <feOffset in="SourceAlpha" result="shadowOffsetOuter2"/>
            <feGaussianBlur in="shadowOffsetOuter2" result="shadowBlurOuter2" stdDeviation=".5"/>
            <feColorMatrix in="shadowBlurOuter2" result="shadowMatrixOuter2" values="0 0 0 0 0.0392156863 0 0 0 0 0.0862745098 0 0 0 0 0.274509804 0 0 0 0.06 0"/>
            <feMerge>
                <feMergeNode in="shadowMatrixOuter1"/>
                <feMergeNode in="shadowMatrixOuter2"/>
            </feMerge>
        </filter>
        <circle id="2r9aa7gq4b" cx="10" cy="10" r="8"/>
    </defs>
    <g fill="none" fill-rule="evenodd">
        <g>
            <g>
                <g>
                    <g>
                        <g>
                            <path d="M10 0h14c5.523 0 10 4.477 10 10s-4.477 10-10 10H10C4.477 20 0 15.523 0 10S4.477 0 10 0z" transform="translate(-1594 -484) translate(1040) translate(30 204) translate(524 280) translate(3 2)"/>
                            <path fill="#C9CED6" d="M10 0h14c5.523 0 10 4.477 10 10s-4.477 10-10 10H10C4.477 20 0 15.523 0 10S4.477 0 10 0z" transform="translate(-1594 -484) translate(1040) translate(30 204) translate(524 280) translate(3 2)"/>
                            <g transform="translate(-1594 -484) translate(1040) translate(30 204) translate(524 280) translate(3 2)">
                                <use fill="#000" filter="url(#l11bnen77a)" xlink:href="#2r9aa7gq4b"/>
                                <use fill="#FFF" xlink:href="#2r9aa7gq4b"/>
                            </g>
                        </g>
                    </g>
                </g>
            </g>
        </g>
    </g>
</svg>
