<svg xmlns="http://www.w3.org/2000/svg" width="24" height="24" viewBox="0 0 24 24">
    <path fill="#1E2F42" fill-rule="evenodd" d="M3.984 3.984c-.562.032-1.03.235-1.406.61-.375.375-.562.843-.562 1.406v3.984c.562.032 1.03.235 1.406.61.375.375.562.843.562 1.406s-.187 1.031-.562 1.406c-.375.375-.844.578-1.406.61V18c0 .563.187 1.031.562 1.406.375.375.844.578 1.406.61h16.032c.562-.032 1.03-.235 1.406-.61.375-.375.562-.843.562-1.406v-3.984c-.562-.032-1.03-.235-1.406-.61-.375-.375-.562-.843-.562-1.406s.187-1.031.562-1.406c.375-.375.844-.578 1.406-.61V6c0-.563-.187-1.031-.562-1.406-.375-.375-.844-.578-1.406-.61H3.984zm0 2.016h16.032v2.531c-.625.375-1.118.867-1.477 1.477C18.18 10.618 18 11.28 18 12c0 .719.18 1.383.54 1.992.358.61.85 1.102 1.476 1.477V18H3.984v-2.531c.625-.375 1.118-.867 1.477-1.477C5.82 13.382 6 12.72 6 12c0-.719-.18-1.383-.54-1.992-.358-.61-.85-1.102-1.476-1.477V6z"/>
</svg>
