<svg xmlns="http://www.w3.org/2000/svg" width="24" height="24" viewBox="0 0 24 24">
    <g fill="none" fill-rule="evenodd">
        <g fill="#C9CED6">
            <g>
                <g>
                    <path d="M5.846 4c-.917 0-1.142.043-1.368.164-.14.075-.239.174-.314.314-.12.226-.164.45-.164 1.368v12.308c0 .917.043 1.142.164 1.368.075.14.174.239.314.314.226.12.45.164 1.368.164h12.308c.917 0 1.142-.043 1.368-.164.14-.075.239-.174.314-.314.12-.226.164-.45.164-1.368V5.846c0-.917-.043-1.142-.164-1.368-.075-.14-.174-.239-.314-.314-.226-.12-.45-.164-1.368-.164H5.846zm0-2h12.308c1.337 0 1.822.14 2.311.4.49.262.873.646 1.134 1.135.262.489.401.974.401 2.31v12.31c0 1.336-.14 1.821-.4 2.31-.262.49-.646.873-1.135 1.134-.489.262-.974.401-2.31.401H5.844c-1.336 0-1.821-.14-2.31-.4-.49-.262-.873-.646-1.134-1.135-.262-.489-.401-.974-.401-2.31V5.844c0-1.336.14-1.821.4-2.31.262-.49.646-.873 1.135-1.134.489-.262.974-.401 2.31-.401z" transform="translate(-432 -512) translate(408 456) translate(24 56)"/>
                </g>
            </g>
        </g>
    </g>
</svg>
