<svg xmlns="http://www.w3.org/2000/svg" width="24" height="24" viewBox="0 0 24 24">
    <g fill="none" fill-rule="evenodd">
        <g fill="#355374">
            <g>
                <g>
                    <g>
                        <g>
                            <path d="M7.5 18c-1.563-.031-2.86-.562-3.89-1.594-1.032-1.031-1.563-2.328-1.594-3.89.03-1.563.562-2.86 1.593-3.891C4.641 7.594 5.937 7.047 7.5 6.985H18c1.125.03 2.062.421 2.813 1.171.75.75 1.125 1.696 1.125 2.836s-.375 2.086-1.125 2.836S19.125 14.968 18 15H9.516c-.72-.031-1.313-.281-1.782-.75-.468-.469-.703-1.055-.703-1.758 0-.703.235-1.289.703-1.758.47-.468 1.063-.718 1.782-.75h7.5v1.5h-7.5c-.282.032-.516.141-.704.329-.187.187-.28.421-.28.703 0 .28.093.515.28.703.188.187.422.281.704.281H18c.719-.031 1.312-.281 1.781-.75.469-.469.703-1.055.703-1.758 0-.703-.234-1.289-.703-1.758-.469-.468-1.062-.718-1.781-.75H7.5c-1.125.032-2.062.422-2.813 1.172-.75.75-1.125 1.696-1.125 2.836s.375 2.086 1.126 2.836c.75.75 1.687 1.14 2.812 1.172h9.516V18H7.5z" transform="translate(-1305 -484) translate(1040) translate(30 204) translate(16 280) translate(219) rotate(-90 11.977 12.492)"/>
                        </g>
                    </g>
                </g>
            </g>
        </g>
    </g>
</svg>
