<svg xmlns="http://www.w3.org/2000/svg" width="32" height="32" viewBox="0 0 32 32">
    <path fill="#FFF" fill-rule="evenodd" d="M22.154 0C27.592 0 32 4.408 32 9.846V32H9.846C4.408 32 0 27.592 0 22.154V9.846C0 4.408 4.408 0 9.846 0zm0 3.692H9.846c-3.393 0-6.153 2.761-6.153 6.154v12.308c0 3.393 2.76 6.154 6.153 6.154h18.462V9.846c0-3.393-2.76-6.154-6.154-6.154zM9.469 13.367c1.452 0 2.633 1.182 2.633 2.633 0 1.45-1.181 2.633-2.633 2.633S6.836 17.45 6.836 16s1.18-2.633 2.633-2.633zm6.531 0c1.452 0 2.633 1.182 2.633 2.633 0 1.45-1.181 2.633-2.633 2.633S13.367 17.45 13.367 16s1.181-2.633 2.633-2.633zm6.531 0c1.452 0 2.633 1.182 2.633 2.633 0 1.45-1.18 2.633-2.633 2.633-1.452 0-2.633-1.182-2.633-2.633s1.181-2.633 2.633-2.633z"/>
</svg>
