<svg xmlns="http://www.w3.org/2000/svg" width="24" height="24" viewBox="0 0 24 24">
    <g fill="none" fill-rule="evenodd">
        <g fill="#355374">
            <g>
                <g>
                    <g>
                        <g>
                            <path d="M18.516 3.984l1.125 4.36-.938.281c-.219-.469-.445-.898-.68-1.29-.234-.39-.484-.687-.75-.89-.265-.203-.554-.328-.867-.375-.312-.047-.61-.07-.89-.07h-2.532v10.5c0 .25.016.484.047.703.032.219.133.39.305.516.172.125.406.203.703.234.297.031.617.047.961.047v.984H9V18c.344 0 .664-.016.96-.047.298-.031.532-.11.704-.234.172-.125.273-.297.305-.516.031-.219.047-.453.047-.703V6H8.484c-.28 0-.578.023-.89.07-.313.047-.602.172-.867.375-.266.203-.516.5-.75.89-.235.392-.461.821-.68 1.29l-.938-.281 1.125-4.36h13.032z" transform="translate(-1086 -484) translate(1040) translate(30 204) translate(16 280)"/>
                        </g>
                    </g>
                </g>
            </g>
        </g>
    </g>
</svg>
