<svg xmlns="http://www.w3.org/2000/svg" width="16" height="16" viewBox="0 0 16 16">
    <path fill="#0DA8C7" fill-rule="evenodd" d="M7.344 6h1.312V4.656H7.344V6zM8 13.344c-1.5-.042-2.755-.568-3.766-1.578C3.224 10.756 2.698 9.5 2.656 8c.042-1.5.568-2.755 1.578-3.766C5.244 3.224 6.5 2.698 8 2.656c1.5.042 2.755.568 3.766 1.578C12.776 5.244 13.302 6.5 13.344 8c-.042 1.5-.568 2.755-1.578 3.766-1.01 1.01-2.266 1.536-3.766 1.578zm0-12c-1.896.041-3.469.687-4.719 1.937C2.031 4.531 1.385 6.104 1.344 8c.041 1.896.687 3.469 1.937 4.719 1.25 1.25 2.823 1.896 4.719 1.937 1.896-.041 3.469-.687 4.719-1.937 1.25-1.25 1.896-2.823 1.937-4.719-.041-1.896-.687-3.469-1.937-4.719C11.469 2.031 9.896 1.385 8 1.344zm-.656 10v-4h1.312v4H7.344z"/>
</svg>
