<svg xmlns="http://www.w3.org/2000/svg" width="20" height="20" viewBox="0 0 20 20">
    <g fill="none" fill-rule="evenodd">
        <g fill="#0DA8C7">
            <g>
                <g>
                    <path d="M10.82 7.5H9.18V5.82h1.64V7.5zm0 6.68H9.18v-5h1.64v5zM10 1.68c2.37.052 4.336.86 5.898 2.422C17.461 5.664 18.268 7.63 18.32 10c-.052 2.37-.86 4.336-2.422 5.898-1.562 1.563-3.528 2.37-5.898 2.422-2.37-.052-4.336-.86-5.898-2.422C2.539 14.336 1.732 12.37 1.68 10c.052-2.37.86-4.336 2.422-5.898C5.664 2.539 7.63 1.732 10 1.68z" transform="translate(-1070 -516) translate(1040) translate(30 516)"/>
                </g>
            </g>
        </g>
    </g>
</svg>
