<svg xmlns="http://www.w3.org/2000/svg" width="156" height="40" viewBox="0 0 156 40">
    <g fill="none" fill-rule="evenodd">
        <path fill="#23374D" d="M78.435 14.509c2.599 0 4.793.878 6.582 2.599 1.788 1.72 2.7 3.88 2.7 6.413 0 2.53-.912 4.69-2.7 6.413-1.79 1.72-3.983 2.598-6.582 2.598-2.6 0-4.793-.878-6.581-2.598-1.79-1.722-2.7-3.882-2.7-6.413 0-2.532.91-4.692 2.7-6.413 1.788-1.721 3.982-2.6 6.58-2.6zm50.76 0c2.6 0 4.793.878 6.582 2.599 1.788 1.72 2.7 3.88 2.7 6.413 0 2.53-.912 4.69-2.7 6.413-1.79 1.72-3.982 2.598-6.581 2.598-2.6 0-4.793-.878-6.582-2.598-1.788-1.722-2.7-3.882-2.7-6.413 0-2.532.912-4.692 2.7-6.413 1.788-1.721 3.983-2.6 6.582-2.6zM53.832 8.5v8.978c.574-1.654 2.633-2.835 5.434-2.835 2.396 0 4.422.843 6.042 2.565 1.654 1.687 2.463 3.78 2.463 6.311s-.81 4.624-2.463 6.346c-1.62 1.687-3.646 2.531-6.042 2.531-2.801 0-4.86-1.182-5.434-2.835v2.464h-4.05V8.501h4.05zm50.76 0v8.978c.575-1.654 2.633-2.835 5.435-2.835 2.395 0 4.42.843 6.04 2.565 1.655 1.687 2.465 3.78 2.465 6.311s-.81 4.624-2.464 6.346c-1.62 1.687-3.646 2.531-6.041 2.531-2.802 0-4.86-1.182-5.435-2.835v2.464h-4.05V8.501h4.05zm-9.517 0v6.514h3.678v3.68h-3.678v13.331h-4.05V18.694h-2.195v-3.679h2.195V8.501h4.05zm48.364 6.514l3.713 5.096 3.679-5.096h4.42l-5.872 8 6.447 9.011h-4.354l-4.32-6.008-4.32 6.008h-4.354l6.446-8.979-5.873-8.032h4.388zm-65.003 3.173c-1.52 0-2.768.506-3.78 1.553-.98 1.012-1.485 2.26-1.485 3.78 0 1.518.506 2.767 1.485 3.814 1.012 1.013 2.26 1.519 3.78 1.519 1.485 0 2.734-.506 3.747-1.52 1.012-1.046 1.519-2.295 1.519-3.813 0-1.52-.507-2.768-1.52-3.78-1.012-1.047-2.261-1.553-3.746-1.553zm50.76 0c-1.518 0-2.767.506-3.78 1.553-.979 1.012-1.486 2.26-1.486 3.78 0 1.518.507 2.767 1.486 3.814 1.012 1.013 2.261 1.519 3.78 1.519 1.484 0 2.734-.506 3.746-1.52 1.013-1.046 1.52-2.295 1.52-3.813 0-1.52-.507-2.768-1.52-3.78-1.012-1.047-2.262-1.553-3.745-1.553zm-70.47.134c-1.451 0-2.7.507-3.713 1.486-.978.98-1.484 2.227-1.484 3.712 0 1.485.506 2.734 1.484 3.713 1.013.98 2.262 1.485 3.713 1.485 1.452 0 2.633-.506 3.578-1.485.979-.979 1.45-2.228 1.45-3.713 0-1.485-.471-2.733-1.45-3.712-.945-.979-2.126-1.486-3.578-1.486zm50.76 0c-1.451 0-2.7.507-3.712 1.486-.98.98-1.485 2.227-1.485 3.712 0 1.485.506 2.734 1.485 3.713 1.013.98 2.26 1.485 3.713 1.485 1.45 0 2.632-.506 3.577-1.485.979-.979 1.45-2.228 1.45-3.713 0-1.485-.471-2.733-1.45-3.712-.945-.979-2.126-1.486-3.577-1.486z"/>
        <path fill="#1089FF" d="M27.692 0C34.489 0 40 5.51 40 12.308V40H12.307C5.51 40 0 34.489 0 27.692V12.308C0 5.51 5.51 0 12.307 0zm0 4.615H12.307c-4.241 0-7.692 3.451-7.692 7.693v15.384c0 4.242 3.451 7.693 7.692 7.693h23.077V12.308c0-4.242-3.45-7.693-7.692-7.693zM11.835 16.709c1.815 0 3.291 1.476 3.291 3.291 0 1.814-1.476 3.291-3.29 3.291-1.815 0-3.292-1.477-3.292-3.29 0-1.816 1.477-3.292 3.291-3.292zm8.165 0c1.815 0 3.29 1.476 3.29 3.291 0 1.814-1.475 3.291-3.29 3.291-1.814 0-3.291-1.477-3.291-3.29 0-1.816 1.477-3.292 3.29-3.292zm8.164 0c1.815 0 3.29 1.476 3.29 3.291 0 1.814-1.475 3.291-3.29 3.291-1.814 0-3.291-1.477-3.291-3.29 0-1.816 1.477-3.292 3.29-3.292z"/>
    </g>
</svg>
