<svg xmlns="http://www.w3.org/2000/svg" width="16" height="16" viewBox="0 0 16 16">
    <defs>
        <linearGradient id="xvjhpuvkba" x1="50.038%" x2="50.038%" y1="77.923%" y2="19.029%">
            <stop offset="0%" stop-color="#1776B8"/>
            <stop offset="100%" stop-color="#31BAEC"/>
        </linearGradient>
        <linearGradient id="hszwqmbs8b" x1="50.038%" x2="50.038%" y1="77.923%" y2="19.029%">
            <stop offset="0%" stop-color="#036DFD"/>
            <stop offset="50.2%" stop-color="#0192FF"/>
            <stop offset="100%" stop-color="#00B6F8"/>
        </linearGradient>
    </defs>
    <g fill="none">
        <path fill="url(#xvjhpuvkba)" d="M7.37.036C3.344.054-.126 2.969.178 7.208c.09 1.216.232 2.11.93 3.291.358.608.68.984 1.18 1.467.108.107.215.214.269.358.053.143.071.59.071.912 0 .357-.071.751.25 1.001.34.269.716-.017 1.056-.143.268-.107.77-.375 1.02-.447.125-.036.232-.018.429.036.715.143 1.234.232 1.967.232 1.091.018 2.057-.196 3.059-.626 2.54-1.252 3.988-3.273 4.078-6.099.179-4.292-2.79-7.172-7.119-7.154z" transform="translate(.667 .667)"/>
        <path fill="url(#hszwqmbs8b)" d="M7.37.036C3.344.054-.126 2.969.178 7.208c.09 1.216.232 2.11.93 3.291.358.608.68.984 1.18 1.467.108.107.215.214.269.358.053.143.071.59.071.912 0 .357-.071.751.25 1.001.34.269.716-.017 1.056-.143.268-.107.77-.375 1.02-.447.125-.036.232-.018.429.036.715.143 1.234.232 1.967.232 1.091.018 2.057-.196 3.059-.626 2.54-1.252 3.988-3.273 4.078-6.099.179-4.292-2.79-7.172-7.119-7.154z" transform="translate(.667 .667)"/>
        <path fill="#FFF" d="M8.657 6.725c-.215 0-.358-.16-.519-.268L6.85 5.49c-.286-.215-.429-.304-.84-.304-.322 0-.59.179-.787.411-.036.036-.072.108-.09.161-.035.054-.053.09-.09.143l-.482.716c-.036.054-.054.09-.09.143l-.554.876c-.215.358-.447.68-.644 1.038-.09.143-.268.322-.286.5 0 .108.036.197.107.251.143.125.322.107.465 0 .054-.054.108-.072.161-.125.054-.054.108-.09.161-.125l.859-.662h.018l1.09-.823c.233-.125.412 0 .591.143l1.395 1.038c.376.286.823.518 1.36.196.232-.143.393-.357.536-.608.054-.09.09-.143.143-.214l1.02-1.61c.053-.072.09-.143.143-.233l.5-.805c.072-.107.18-.232.215-.375.054-.269-.268-.519-.554-.304l-.125.09h-.018l-.018.017c-.054.054-.108.072-.161.125-.465.376-.966.698-1.431 1.091l-.376.286c-.143.108-.214.197-.411.197z" transform="translate(.667 .667)"/>
    </g>
</svg>
