<svg xmlns="http://www.w3.org/2000/svg" width="24" height="24" viewBox="0 0 24 24">
    <path fill="#C9CED6" fill-rule="evenodd" d="M11.016 18h1.968v-2.016h-1.968V18zM12 2.016c-2.844.062-5.203 1.03-7.078 2.906C3.047 6.797 2.078 9.156 2.016 12c.062 2.844 1.03 5.203 2.906 7.078 1.875 1.875 4.234 2.844 7.078 2.906 2.844-.062 5.203-1.03 7.078-2.906 1.875-1.875 2.844-4.234 2.906-7.078-.062-2.844-1.03-5.203-2.906-7.078C17.203 3.047 14.844 2.078 12 2.016zm0 18c-2.25-.063-4.133-.852-5.648-2.368C4.836 16.133 4.047 14.25 3.984 12c.063-2.25.852-4.133 2.368-5.648C7.867 4.836 9.75 4.047 12 3.984c2.25.063 4.133.852 5.648 2.368C19.164 7.867 19.953 9.75 20.016 12c-.063 2.25-.852 4.133-2.368 5.648-1.515 1.516-3.398 2.305-5.648 2.368zM12 6c1.125.031 2.062.422 2.813 1.172.75.75 1.14 1.687 1.171 2.812-.116 1.074-.555 1.898-1.318 2.474l-.182.128c-.875.578-1.375 1.383-1.5 2.414h-1.968c.117-1.412.567-2.374 1.35-2.886l.15-.09c.875-.485 1.375-1.165 1.5-2.04-.032-.562-.235-1.03-.61-1.406-.375-.375-.843-.562-1.406-.562s-1.031.187-1.406.562c-.375.375-.578.844-.61 1.406H8.016c.03-1.125.421-2.062 1.171-2.812S10.876 6.032 12 6z"/>
</svg>
