<svg xmlns="http://www.w3.org/2000/svg" width="20" height="20" viewBox="0 0 20 20">
    <path fill="#C9CED6" fill-rule="evenodd" d="M9.167 13.333c2.3 0 4.166-1.865 4.166-4.166C13.333 6.865 11.468 5 9.167 5 6.865 5 5 6.865 5 9.167c0 2.3 1.865 4.166 4.167 4.166zm0-10C12.388 3.333 15 5.945 15 9.167c0 1.31-.432 2.52-1.162 3.494l2.585 2.583c.325.326.325.853 0 1.179-.326.325-.853.325-1.179 0l-2.583-2.585c-.974.73-2.184 1.162-3.494 1.162-3.222 0-5.834-2.612-5.834-5.833 0-3.222 2.612-5.834 5.834-5.834z"/>
</svg>
