<svg xmlns="http://www.w3.org/2000/svg" width="24" height="24" viewBox="0 0 24 24">
    <path fill="#FFF" fill-rule="evenodd" d="M16.5 15.5c1.72 0 3.75.8 4 1.28v.72h-8v-.72c.25-.48 2.28-1.28 4-1.28m0-1.5c-1.83 0-5.5.92-5.5 2.75V19h11v-2.25c0-1.83-3.67-2.75-5.5-2.75M9 13c-2.33 0-7 1.17-7 3.5V19h7v-1.5H3.5v-1c0-.63 2.79-2.16 6.32-2 .43-.514.957-.939 1.55-1.25-.78-.16-1.574-.244-2.37-.25m0-6.5c.828 0 1.5.672 1.5 1.5S9.828 9.5 9 9.5 7.5 8.828 7.5 8 8.172 6.5 9 6.5M9 5C7.343 5 6 6.343 6 8s1.343 3 3 3 3-1.343 3-3-1.343-3-3-3m7.5 3.5c.552 0 1 .448 1 1s-.448 1-1 1-1-.448-1-1 .448-1 1-1m0-1.5C15.12 7 14 8.12 14 9.5s1.12 2.5 2.5 2.5S19 10.88 19 9.5 17.88 7 16.5 7z"/>
</svg>
