<svg xmlns="http://www.w3.org/2000/svg" width="24" height="24" viewBox="0 0 24 24">
    <path fill="#1089FF" fill-rule="evenodd" d="M15.846 2C19.245 2 22 4.755 22 8.154V22H8.154C4.755 22 2 19.245 2 15.846V8.154C2 4.755 4.755 2 8.154 2zm0 2.308H8.154c-2.12 0-3.846 1.725-3.846 3.846v7.692c0 2.12 1.725 3.846 3.846 3.846h11.538V8.154c0-2.12-1.724-3.846-3.846-3.846zm-7.928 6.046c.908 0 1.646.739 1.646 1.646 0 .907-.738 1.645-1.646 1.645-.907 0-1.646-.738-1.646-1.645s.739-1.646 1.646-1.646zm4.082 0c.908 0 1.646.739 1.646 1.646 0 .907-.738 1.645-1.646 1.645-.907 0-1.646-.738-1.646-1.645s.739-1.646 1.646-1.646zm4.082 0c.908 0 1.646.739 1.646 1.646 0 .907-.738 1.645-1.646 1.645-.907 0-1.646-.738-1.646-1.645s.739-1.646 1.646-1.646z"/>
</svg>
