<svg xmlns="http://www.w3.org/2000/svg" width="24" height="24" viewBox="0 0 24 24">
    <defs>
        <linearGradient id="vubeixz0la" x1="50.038%" x2="50.038%" y1="77.923%" y2="19.029%">
            <stop offset="0%" stop-color="#1776B8"/>
            <stop offset="100%" stop-color="#31BAEC"/>
        </linearGradient>
        <linearGradient id="3d4559oahb" x1="50.038%" x2="50.038%" y1="77.923%" y2="19.029%">
            <stop offset="0%" stop-color="#036DFD"/>
            <stop offset="50.2%" stop-color="#0192FF"/>
            <stop offset="100%" stop-color="#00B6F8"/>
        </linearGradient>
    </defs>
    <g fill="none">
        <path fill="url(#vubeixz0la)" d="M11.054.054C5.017.08-.188 4.454.268 10.812c.134 1.825.35 3.166 1.395 4.937.537.912 1.02 1.475 1.771 2.2.161.16.322.322.403.536.08.215.107.886.107 1.369 0 .536-.107 1.126.376 1.502.51.403 1.073-.027 1.582-.215.403-.16 1.154-.563 1.53-.67.188-.054.348-.027.644.053 1.073.215 1.85.35 2.95.35 1.637.026 3.086-.296 4.589-.94 3.81-1.878 5.983-4.91 6.117-9.149C22 4.346 17.546.027 11.054.054z" transform="translate(1 1)"/>
        <path fill="url(#3d4559oahb)" d="M11.054.054C5.017.08-.188 4.454.268 10.812c.134 1.825.35 3.166 1.395 4.937.537.912 1.02 1.475 1.771 2.2.161.16.322.322.403.536.08.215.107.886.107 1.369 0 .536-.107 1.126.376 1.502.51.403 1.073-.027 1.582-.215.403-.16 1.154-.563 1.53-.67.188-.054.348-.027.644.053 1.073.215 1.85.35 2.95.35 1.637.026 3.086-.296 4.589-.94 3.81-1.878 5.983-4.91 6.117-9.149C22 4.346 17.546.027 11.054.054z" transform="translate(1 1)"/>
        <path fill="#FFF" d="M12.985 10.088c-.322 0-.536-.242-.778-.403l-1.931-1.448c-.43-.322-.644-.457-1.261-.457-.483 0-.886.269-1.18.618-.055.053-.108.16-.135.241-.054.08-.08.134-.134.215L6.84 9.927c-.053.08-.08.134-.134.214l-.831 1.315c-.322.537-.671 1.02-.966 1.556-.134.215-.403.483-.43.751 0 .161.054.296.161.376.215.188.483.161.698 0 .08-.08.161-.107.241-.188.081-.08.161-.134.242-.188l1.288-.992h.027l1.636-1.234c.349-.188.617 0 .886.214l2.092 1.556c.564.43 1.234.778 2.04.295.348-.214.59-.536.804-.912.08-.134.134-.214.215-.322l1.529-2.414c.08-.108.134-.215.215-.35l.75-1.206c.108-.161.27-.35.323-.564.08-.402-.403-.778-.832-.456l-.188.134h-.027l-.026.027c-.08.08-.161.107-.242.188-.697.563-1.449 1.046-2.146 1.636l-.564.43c-.214.16-.322.295-.617.295z" transform="translate(1 1)"/>
    </g>
</svg>
