<svg xmlns="http://www.w3.org/2000/svg" width="24" height="24" viewBox="0 0 24 24">
    <defs>
        <linearGradient id="19pezd11pa" x1="64.699%" x2="-22.258%" y1="15.709%" y2="218.595%">
            <stop offset="0%" stop-color="#37AEE2"/>
            <stop offset="100%" stop-color="#1E96C8"/>
        </linearGradient>
    </defs>
    <g fill="none" transform="translate(1 1)">
        <circle cx="11" cy="11" r="10.968" fill="url(#19pezd11pa)"/>
        <path fill="#FFF" d="M4.61 10.905l7.44-3.052c.762-.287 3.242-1.336 3.242-1.336s1.144-.477 1.049.668c0 .477-.286 2.003-.572 3.72l-.763 4.96s-.096.762-.572.858c-.573.095-1.431-.477-1.622-.573-.095-.095-2.384-1.526-3.243-2.193-.19-.191-.477-.573 0-1.05 1.145-1.049 2.48-2.384 3.339-3.147.381-.381.763-1.24-.859-.19l-4.483 2.956s-.476.286-1.43 0-2.098-.668-2.098-.668-.763-.477.572-.953z"/>
    </g>
</svg>
