<svg xmlns="http://www.w3.org/2000/svg" width="24" height="24" viewBox="0 0 24 24">
    <defs>
        <linearGradient id="52a5elfz1a" x1="49.999%" x2="49.999%" y1="100.026%" y2="-.032%">
            <stop offset="0%" stop-color="#20B038"/>
            <stop offset="100%" stop-color="#60D66A"/>
        </linearGradient>
    </defs>
    <g fill="none">
        <path fill="#E0E0E0" d="M18.755 3.19C16.692 1.127 13.97 0 11.055 0 5.033 0 .165 4.895.137 10.89c0 1.925.495 3.795 1.458 5.445L.055 22l5.775-1.512c1.595.88 3.383 1.32 5.197 1.32 6.023 0 10.89-4.895 10.918-10.89 0-2.915-1.128-5.665-3.19-7.728zm-7.7 16.775c-1.623 0-3.217-.44-4.62-1.265l-.33-.192-3.438.907.908-3.355-.22-.33c-.908-1.43-1.375-3.107-1.375-4.813 0-5.005 4.07-9.047 9.075-9.047 2.42 0 4.703.935 6.407 2.667 1.706 1.705 2.64 3.988 2.64 6.408 0 4.95-4.07 9.02-9.047 9.02z" transform="translate(1 1)"/>
        <path fill="url(#52a5elfz1a)" d="M.55 21.367l1.485-5.39C1.127 14.41.632 12.623.632 10.78.632 5.033 5.309.385 11.029.385c2.777 0 5.39 1.073 7.37 3.053 1.98 1.952 3.052 4.564 3.052 7.342 0 5.748-4.675 10.395-10.395 10.395-1.732 0-3.465-.44-4.978-1.265L.55 21.367z" transform="translate(1 1)"/>
        <path fill="#FFF" d="M8.36 6.27c-.192-.44-.412-.467-.605-.467h-.522c-.193 0-.468.054-.715.33-.248.274-.936.907-.936 2.254 0 1.32.963 2.613 1.1 2.778.11.193 1.843 2.998 4.593 4.07 2.282.907 2.75.715 3.245.688.495-.056 1.595-.66 1.815-1.293.22-.633.22-1.155.165-1.293-.055-.11-.247-.192-.523-.302-.274-.11-1.595-.797-1.842-.88-.248-.082-.44-.137-.605.138-.192.275-.688.88-.852 1.045-.166.192-.303.192-.578.055-.275-.138-1.127-.413-2.172-1.348-.798-.715-1.348-1.595-1.486-1.87-.165-.275-.027-.413.11-.55.11-.11.276-.303.413-.467.137-.165.193-.275.275-.44.082-.193.055-.33-.027-.468-.11-.11-.633-1.457-.853-1.98z" transform="translate(1 1)"/>
        <path fill="#FFF" d="M18.672 3.163C16.637 1.127 13.942 0 11.055 0 5.115 0 .275 4.84.275 10.78c0 1.898.495 3.74 1.43 5.39l-1.54 5.582 5.72-1.485c1.567.853 3.355 1.32 5.143 1.32 5.94 0 10.78-4.84 10.78-10.78.027-2.887-1.1-5.61-3.136-7.645zm-7.617 16.582c-1.623 0-3.19-.44-4.565-1.238l-.33-.192-3.41.88.908-3.3-.22-.33c-.908-1.43-1.376-3.08-1.376-4.758 0-4.95 4.015-8.965 8.966-8.965 2.392 0 4.647.935 6.324 2.64 1.706 1.705 2.613 3.933 2.613 6.325.027 4.923-3.988 8.938-8.91 8.938z" transform="translate(1 1)"/>
    </g>
</svg>
